
Complete name                    : Eyes.Wide.Shut.1999.avi
Format                           : AVI
File size                        : 1.77 GiB
Duration                         : 2h 32mn
Overall bit rate                 : 1 657 Kbps

Video
ID                               : 0
Format                           : MPEG-4 Visual
Codec ID/Hint                    : XviD
Duration                         : 2h 32mn
Bit rate                         : 1 262 Kbps
Width                            : 718 pixels
Height                           : 576 pixels
Display aspect ratio             : 4:3
Stream size                      : 1.34 GiB (76%)
Writing library                  : XviD 1.1.2 (UTC 2006-11-01)

Audio

Format                           : AC-3
Duration                         : 2h 32mn
Bit rate                         : 384 Kbps
Channel(s)                       : 6 channels
Channel positions                : Front: L C R, Side: L R, LFE
Sampling rate                    : 48.0 KHz
Bit depth                        : 16 bits
Stream size                      : 419 MiB (23%)

Text #1
Language                         : English

Text #2
Language                         : German

Text #3
Language                         : Swedish

Text #4
Language                         : Norwegian

Text #5
Language                         : Danish

Text #6
Language                         : Finnish

Text #7
Language                         : Icelandic


